<svg width="61" height="61" viewBox="0 0 61 61" fill="none" xmlns="http://www.w3.org/2000/svg">
<rect width="61" height="61" rx="20" fill="#FFECEC"/>
<path d="M24.4999 17C23.6776 17 22.9999 17.6777 22.9999 18.5V28.5C22.9999 29.3224 23.6776 30 24.4999 30H34.4999C35.3223 30 35.9999 29.3224 35.9999 28.5V18.5C35.9999 17.6777 35.3223 17 34.4999 17H24.4999ZM29.4823 19C29.5832 18.9964 29.6827 19.0234 29.768 19.0774C29.8532 19.1314 29.9201 19.21 29.9599 19.3027L32.9599 26.3027C32.9862 26.3632 33.0003 26.4283 33.0014 26.4942C33.0024 26.5601 32.9904 26.6257 32.9661 26.687C32.9418 26.7482 32.9054 26.8041 32.8594 26.8514C32.8134 26.8986 32.7585 26.9363 32.6979 26.9622C32.6373 26.9882 32.5721 27.0019 32.5061 27.0026C32.4402 27.0032 32.3748 26.9908 32.3136 26.9661C32.2525 26.9414 32.1968 26.9048 32.1498 26.8585C32.1029 26.8122 32.0655 26.7571 32.04 26.6963L31.3134 25H27.6864L26.9599 26.6963C26.9343 26.7571 26.897 26.8122 26.85 26.8585C26.803 26.9048 26.7473 26.9414 26.6862 26.9661C26.625 26.9908 26.5596 27.0032 26.4937 27.0026C26.4277 27.0019 26.3626 26.9882 26.3019 26.9622C26.2413 26.9363 26.1864 26.8986 26.1404 26.8514C26.0944 26.8041 26.0582 26.7482 26.0338 26.687C26.0095 26.6257 25.9975 26.5601 25.9986 26.4942C25.9996 26.4283 26.0136 26.3632 26.04 26.3027L29.04 19.3027C29.0774 19.2155 29.1389 19.1407 29.2172 19.0871C29.2955 19.0335 29.3875 19.0033 29.4823 19ZM29.4998 20.7695L28.115 24H30.8846L29.4998 20.7695Z" fill="#FD6363"/>
<path d="M17.5 32C16.6777 32 16 32.6777 16 33.5V43.5C16 44.3224 16.6777 45 17.5 45H27.5C28.3224 45 29 44.3224 29 43.5V33.5C29 32.6777 28.3224 32 27.5 32H17.5ZM20.5039 34H22.5039C23.8787 34 25.0039 35.1252 25.0039 36.5C25.0039 37.3373 24.5598 38.0457 23.9229 38.5C24.5598 38.9544 25.0039 39.6627 25.0039 40.5C25.0039 41.8748 23.8787 43 22.5039 43H20.5039C20.3713 43 20.2442 42.9473 20.1504 42.8536C20.0567 42.7598 20.004 42.6326 20.0039 42.5V38.582C19.9945 38.5264 19.9945 38.4696 20.0039 38.4141V34.5C20.004 34.3674 20.0567 34.2402 20.1504 34.1465C20.2442 34.0527 20.3713 34 20.5039 34ZM21.0039 35V38H22.5039C23.3383 38 24.0039 37.3343 24.0039 36.5C24.0039 35.6657 23.3383 35 22.5039 35H21.0039ZM21.0039 39V42H22.5039C23.3383 42 24.0039 41.3343 24.0039 40.5C24.0039 39.6657 23.3383 39 22.5039 39H21.0039Z" fill="#FD6363"/>
<path d="M32.5 32C31.6777 32 31 32.6777 31 33.5V43.5C31 44.3224 31.6777 45 32.5 45H42.5C43.3224 45 44 44.3224 44 43.5V33.5C44 32.6777 43.3224 32 42.5 32H32.5ZM38.0117 34C39.0764 34 40.1306 34.3209 40.876 35.1699C40.9204 35.2191 40.9547 35.2766 40.9767 35.3392C40.9987 35.4017 41.008 35.4681 41.0042 35.5342C41.0003 35.6004 40.9833 35.6652 40.9542 35.7247C40.9251 35.7843 40.8845 35.8375 40.8346 35.8812C40.7847 35.9249 40.7267 35.9582 40.6638 35.9793C40.601 36.0004 40.5345 36.0088 40.4684 36.0039C40.4023 35.9991 40.3378 35.9811 40.2787 35.9511C40.2196 35.9211 40.167 35.8796 40.124 35.8291C39.5984 35.2304 38.8865 35 38.0117 35C36.3801 35 35 36.5281 35 38.5C35 40.4719 36.3801 42 38.0117 42C38.8865 42 39.5984 41.7686 40.124 41.1699C40.167 41.1194 40.2196 41.078 40.2787 41.048C40.3378 41.018 40.4023 41 40.4684 40.9952C40.5345 40.9903 40.601 40.9987 40.6638 41.0197C40.7267 41.0408 40.7847 41.0742 40.8346 41.1179C40.8845 41.1616 40.9251 41.2147 40.9542 41.2743C40.9833 41.3339 41.0003 41.3987 41.0042 41.4648C41.008 41.531 40.9987 41.5973 40.9767 41.6599C40.9547 41.7224 40.9204 41.7799 40.876 41.8291C40.1306 42.6781 39.0764 43 38.0117 43C35.7645 43 34 40.9464 34 38.5C34 36.0536 35.7645 34 38.0117 34Z" fill="#FD6363"/>
</svg>
