<svg width="61" height="61" viewBox="0 0 61 61" fill="none" xmlns="http://www.w3.org/2000/svg">
<rect width="61" height="61" rx="20" fill="#EDFFFD"/>
<g clip-path="url(#clip0_6_644)">
<path d="M31 17C23.2689 17 17 23.2689 17 31C17 38.7311 23.2689 45 31 45C32.2911 45 33.3333 43.9578 33.3333 42.6667C33.3333 42.06 33.1078 41.5155 32.7267 41.1033C32.3611 40.6911 32.1433 40.1545 32.1433 39.5555C32.1433 38.2644 33.1855 37.2222 34.4767 37.2222H37.2222C41.5155 37.2222 45 33.7377 45 29.4444C45 22.5689 38.7311 17 31 17ZM22.4445 31C21.1533 31 20.1111 29.9578 20.1111 28.6667C20.1111 27.3755 21.1533 26.3333 22.4445 26.3333C23.7356 26.3333 24.7778 27.3755 24.7778 28.6667C24.7778 29.9578 23.7355 31 22.4445 31ZM27.1111 24.7778C25.82 24.7778 24.7778 23.7356 24.7778 22.4445C24.7778 21.1533 25.82 20.1111 27.1111 20.1111C28.4023 20.1111 29.4445 21.1533 29.4445 22.4445C29.4445 23.7356 28.4022 24.7778 27.1111 24.7778ZM34.8889 24.7778C33.5977 24.7778 32.5555 23.7356 32.5555 22.4445C32.5555 21.1533 33.5977 20.1111 34.8889 20.1111C36.18 20.1111 37.2222 21.1533 37.2222 22.4445C37.2222 23.7356 36.18 24.7778 34.8889 24.7778ZM39.5555 31C38.2644 31 37.2222 29.9578 37.2222 28.6667C37.2222 27.3755 38.2644 26.3333 39.5555 26.3333C40.8467 26.3333 41.8889 27.3755 41.8889 28.6667C41.8889 29.9578 40.8467 31 39.5555 31Z" fill="#37DFCF"/>
</g>
<defs>
<clipPath id="clip0_6_644">
<rect width="28" height="28" fill="white" transform="translate(17 17)"/>
</clipPath>
</defs>
</svg>
