<svg width="61" height="61" viewBox="0 0 61 61" fill="none" xmlns="http://www.w3.org/2000/svg">
<rect width="61" height="61" rx="20" fill="#EFEEFF"/>
<g clip-path="url(#clip0_6_614)">
<path d="M17 20.111V30.2222H30.2222V17H20.111C18.3928 17 17 18.3928 17 20.111ZM21.2778 22.8334H22.8334V21.2778C22.8334 20.8482 23.1816 20.5 23.6112 20.5C24.0408 20.5 24.389 20.8482 24.389 21.2778V22.8334H25.9446C26.374 22.8334 26.7224 23.1816 26.7224 23.6112C26.7224 24.0408 26.3742 24.389 25.9446 24.389H24.389V25.9446C24.389 26.374 24.0408 26.7224 23.6112 26.7224C23.1816 26.7224 22.8334 26.3742 22.8334 25.9446V24.389H21.2778C20.8482 24.389 20.5 24.0408 20.5 23.6112C20.5 23.1816 20.8482 22.8334 21.2778 22.8334Z" fill="#918CFF"/>
<path d="M41.889 17H31.7778V30.2222H45V20.111C45 18.3928 43.6072 17 41.889 17ZM40.7222 24.389H36.0556C35.626 24.389 35.2778 24.0408 35.2778 23.611C35.2778 23.1814 35.626 22.8332 36.0556 22.8332H40.7222C41.1518 22.8332 41.5 23.1814 41.5 23.611C41.5 24.0408 41.1518 24.389 40.7222 24.389Z" fill="#918CFF"/>
<path d="M17 41.889C17 43.6072 18.3928 45 20.111 45H30.2222V31.7778H17V41.889ZM21.4115 37.2891C21.1131 36.98 21.1216 36.4878 21.4305 36.1894C21.732 35.8982 22.2098 35.8982 22.5113 36.1894L23.6112 37.2891L24.7109 36.1894C25.0201 35.8909 25.5125 35.8995 25.8109 36.2084C26.1018 36.5098 26.1018 36.9877 25.8109 37.2891L24.7109 38.389L25.8109 39.4888C26.1198 39.7872 26.1283 40.2796 25.8299 40.5885C25.5315 40.8976 25.0391 40.9062 24.7302 40.6077C24.7235 40.6015 24.7173 40.5951 24.7109 40.5885L23.6112 39.4888L22.5113 40.5885C22.2024 40.8871 21.71 40.8786 21.4115 40.5695C21.1204 40.2681 21.1204 39.7902 21.4115 39.4888L22.5113 38.389L21.4115 37.2891Z" fill="#918CFF"/>
<path d="M31.7778 45H41.889C43.6072 45 45 43.6072 45 41.889V31.7778H31.7778V45ZM36.0556 36.0556H40.7222C41.1518 36.0556 41.5 36.4038 41.5 36.8334C41.5 37.263 41.1518 37.6112 40.7222 37.6112H36.0556C35.626 37.6112 35.2778 37.263 35.2778 36.8334C35.2778 36.4038 35.626 36.0556 36.0556 36.0556ZM36.0556 39.1666H40.7222C41.1518 39.1666 41.5 39.5148 41.5 39.9444C41.5 40.374 41.1518 40.7222 40.7222 40.7222H36.0556C35.626 40.7222 35.2778 40.374 35.2778 39.9444C35.2778 39.5148 35.626 39.1666 36.0556 39.1666Z" fill="#918CFF"/>
</g>
<defs>
<clipPath id="clip0_6_614">
<rect width="28" height="28" fill="white" transform="translate(17 17)"/>
</clipPath>
</defs>
</svg>
