<svg width="61" height="61" viewBox="0 0 61 61" fill="none" xmlns="http://www.w3.org/2000/svg">
<rect width="61" height="61" rx="20" fill="#FFF8E8"/>
<g clip-path="url(#clip0_6_623)">
<path d="M45 25.2031V43.3594H36.6563C34.3636 43.3594 33.1577 44.914 33.0349 45H28.9651C28.8405 44.9128 27.6519 43.3594 25.3437 43.3594H17V23.5625H18.6406V41.7188H25.3508C27.9146 41.7188 29.3418 43.1653 29.6973 43.3594H32.3027C32.6581 43.1653 34.0856 41.7188 36.6492 41.7188H43.3594V25.2031H45Z" fill="#FFC645"/>
<path d="M28.5352 40.7327C27.5388 40.3018 26.4609 40.0781 25.3508 40.0781H20.2812V20.2812H21.9219V36.7969H24.3828C26.6184 36.7969 28.4472 38.5474 28.5352 40.7327Z" fill="#FFC645"/>
<path d="M36.6492 21.9219C34.9116 21.9219 33.238 22.3771 31.7627 23.2476C31.8008 23.6202 31.8203 23.9991 31.8203 24.3828V41.6844C31.9302 41.6047 32.0558 41.5164 32.1989 41.4224C34.7318 39.7331 36.4771 40.0781 41.7187 40.0781V21.9219H36.6492Z" fill="#FFC645"/>
<path d="M30.1797 40.8984C30.1797 37.7322 27.5792 35.1562 24.3828 35.1562H23.5625V17C27.6636 17 30.1797 20.3119 30.1797 24.3828V40.8984Z" fill="#FFC645"/>
</g>
<defs>
<clipPath id="clip0_6_623">
<rect width="28" height="28" fill="white" transform="translate(17 17)"/>
</clipPath>
</defs>
</svg>
