<svg width="152" height="94" viewBox="0 0 152 94" fill="none" xmlns="http://www.w3.org/2000/svg">
<path d="M9.304 93.024C6.65867 93.024 4.568 92.2987 3.032 90.848C1.58133 89.312 0.856001 87.136 0.856001 84.32V10.464C0.856001 7.648 1.58133 5.51466 3.032 4.064C4.568 2.52799 6.744 1.75999 9.56 1.75999H54.232C56.4507 1.75999 58.1147 2.31466 59.224 3.424C60.3333 4.53333 60.888 6.112 60.888 8.16C60.888 10.2933 60.3333 11.9573 59.224 13.152C58.1147 14.2613 56.4507 14.816 54.232 14.816H17.24V40.288H51.544C53.6773 40.288 55.2987 40.8427 56.408 41.952C57.6027 43.0613 58.2 44.64 58.2 46.688C58.2 48.8213 57.6027 50.4853 56.408 51.68C55.2987 52.7893 53.6773 53.344 51.544 53.344H17.24V84.32C17.24 90.1227 14.5947 93.024 9.304 93.024ZM80.923 93.024C78.2777 93.024 76.2297 92.2987 74.779 90.848C73.4137 89.312 72.731 87.2213 72.731 84.576V9.184C72.731 6.45333 73.4137 4.36266 74.779 2.91199C76.2297 1.46133 78.2777 0.735992 80.923 0.735992C83.5683 0.735992 85.5737 1.46133 86.939 2.91199C88.3897 4.36266 89.115 6.45333 89.115 9.184V39.392H135.579V9.184C135.579 6.45333 136.262 4.36266 137.627 2.91199C139.078 1.46133 141.126 0.735992 143.771 0.735992C146.416 0.735992 148.422 1.46133 149.787 2.91199C151.238 4.36266 151.963 6.45333 151.963 9.184V84.576C151.963 87.2213 151.238 89.312 149.787 90.848C148.422 92.2987 146.416 93.024 143.771 93.024C141.126 93.024 139.078 92.2987 137.627 90.848C136.262 89.312 135.579 87.2213 135.579 84.576V53.088H89.115V84.576C89.115 87.2213 88.4323 89.312 87.067 90.848C85.7017 92.2987 83.6537 93.024 80.923 93.024Z" fill="#029BC5"/>
</svg>
