<svg width="350" height="63" viewBox="0 0 350 63" fill="none" xmlns="http://www.w3.org/2000/svg">
<path fill-rule="evenodd" clip-rule="evenodd" d="M8.24884 41.263C5.94725 41.29 3.64921 41.2996 1.3519 41.296C0.903065 41.2949 0.52529 41.7877 0.508716 42.3962C0.492141 43.0048 0.843083 43.4998 1.29191 43.5009C3.3599 43.5015 5.42837 43.4934 7.49569 43.4763C7.61019 43.5794 7.84068 43.7281 8.23683 43.806C20.5827 46.1252 33.9673 43.5875 46.6244 41.9836C58.484 41.2307 70.3515 40.2397 82.2229 39.1209C80.8076 39.3526 79.3929 39.58 77.9774 39.7984C77.6828 39.845 76.9196 39.9691 76.8146 40.0079C76.2137 40.2462 76.192 40.9428 76.1928 41.1195C76.1932 41.2078 76.2322 42.1814 77.042 42.1834C85.7409 42.1948 94.4491 40.8467 103.119 39.5981C106.344 39.1329 109.565 38.6587 112.789 38.1758C113.91 38.004 116.826 37.7172 117.229 37.601C117.662 37.4732 117.833 37.0979 117.9 36.8099C124.893 35.9959 131.892 35.2529 138.894 34.5762C140.264 34.5276 141.632 34.4834 143 34.4391C157.91 33.976 172.815 33.5878 187.725 33.0363C179.415 33.8398 171.083 34.6863 162.783 35.7465C161.083 35.9635 159.385 36.2425 157.686 36.4772C156.757 36.6015 154.357 36.7294 154.018 36.8886C153.513 37.1319 153.43 37.6576 153.414 37.9173C153.405 38.0758 153.436 38.9561 154.28 39.1454C169.938 42.6732 185.941 42.9862 201.845 43.5592C206.029 43.7087 210.212 43.8802 214.392 44.0694C204.394 44.6445 194.301 44.4993 184.324 44.5147C184.235 44.4041 184.106 44.3004 183.92 44.2334C183.647 44.131 182.801 44.0166 181.258 43.915C180.926 43.8934 180.623 44.1471 180.474 44.5281C178.103 44.5471 175.739 44.5798 173.385 44.6394C165.678 44.8337 157.967 45.3987 150.26 45.6415L148.516 45.6753L148.153 45.683C146.817 45.698 145.183 45.7065 144.097 45.7124C143.471 45.711 141.84 45.7593 141.615 45.7742C140.935 45.8274 140.812 46.6822 140.807 46.7217C140.804 46.7436 140.803 47.9845 141.734 47.9839C142.356 47.9851 144.706 47.9473 148.001 47.8876C148.828 47.8773 149.555 47.8662 149.988 47.8532L150.321 47.8438C160.856 47.632 177.739 47.2088 182.523 46.7225C198.073 46.6589 213.935 47.1149 229.31 44.7681C229.814 44.6881 230.037 44.4612 230.081 44.4104C230.321 44.1181 230.374 43.794 230.366 43.5155C230.362 43.3386 230.302 42.6245 229.666 42.4813C229.219 42.3788 225.99 42.4066 224.748 42.3469C217.15 41.9815 209.55 41.6293 201.947 41.3564C188.236 40.8613 174.452 40.5699 160.879 38.2183C161.545 38.1202 162.211 38.0265 162.878 37.9417C171.294 36.8654 179.742 36.0072 188.167 35.1964C214.331 32.6773 241.073 33.9241 267.128 30.0304C267.661 29.952 267.902 29.726 267.948 29.6754C268.202 29.3794 268.255 29.042 268.247 28.759C268.242 28.5865 268.177 27.8633 267.529 27.7239C266.994 27.608 263.134 27.6607 261.649 27.6018C255.718 27.3665 249.782 27.1266 243.843 27.0809C234.04 27.0081 224.215 27.1019 214.39 27.3812C213.554 27.1526 212.687 26.9446 211.791 26.7571C218.418 26.3746 225.04 26.0669 231.659 25.8607C258.793 25.0035 285.915 24.7419 313.03 24.7492C324.26 24.7543 335.643 25.6019 346.882 24.9628C347.28 24.9392 348.161 25.02 348.596 24.9938C348.844 24.9801 349.026 24.9144 349.114 24.8659C349.477 24.655 349.597 24.2947 349.639 24.0142C349.673 23.7952 349.742 23.079 349.076 22.7002C334.751 14.5514 311.866 18.211 296.899 17.8498C235.786 16.3761 174.585 20.6342 113.465 27.1177C89.0277 29.7082 64.6522 32.3238 40.2572 35.9586C31.6001 37.2476 22.9331 38.3463 14.3156 40.2114C13.1908 40.4581 10.8145 40.7506 9.29141 41.0253C8.88134 41.1013 8.52427 41.1845 8.24884 41.263ZM344.483 22.8739C330.327 17.304 310.309 20.3784 296.812 20.0533C235.751 18.5822 174.602 22.8343 113.534 29.3116C89.1141 31.9029 64.756 34.5152 40.3776 38.1508C34.1761 39.0719 27.9689 39.8998 21.7795 40.9805C30.0359 40.7174 38.2968 40.3089 46.5703 39.7861C48.2929 39.5658 50.0036 39.3625 51.696 39.1937C72.4831 37.1083 93.3163 35.0607 114.144 33.6752C121.035 32.9398 127.927 32.1912 134.825 31.4474C148.181 29.385 166.415 26.488 183.176 25.5242C188.942 25.1945 194.534 25.0942 199.698 25.3385C210.368 24.5772 221.028 23.992 231.68 23.6582C258.826 22.7973 285.961 22.5407 313.091 22.5488C323.501 22.5514 334.04 23.2848 344.483 22.8739ZM214.211 29.5888C207.916 29.772 201.622 30.0347 195.336 30.3773C192.538 30.5333 189.74 30.6938 186.941 30.863C188.469 30.8093 189.998 30.7512 191.526 30.6887C198.698 30.4095 205.887 30.1443 213.06 29.6797C213.417 29.6539 213.895 29.652 214.43 29.6531L214.221 29.5937L214.211 29.5888ZM252.982 29.4819C249.914 29.3855 246.846 29.3068 243.776 29.2854C235.808 29.2278 227.826 29.2753 219.841 29.4464C220.031 29.6063 220.131 29.7617 220.177 29.8612C220.311 30.1419 220.33 30.421 220.297 30.6755C220.276 30.8334 220.231 31.0211 220.131 31.2014C231.099 30.8132 242.08 30.4564 252.982 29.4819ZM203.422 27.7783C202.221 27.6766 200.991 27.5955 199.733 27.535C193.496 27.9817 187.256 28.4813 181.024 29.0254C185.79 28.7237 190.56 28.4397 195.328 28.1778C198.025 28.0298 200.724 27.8953 203.422 27.7783Z" fill="#F1A501" fill-opacity="0.82"/>
</svg>
