<svg width="70" height="70" viewBox="0 0 70 70" fill="none" xmlns="http://www.w3.org/2000/svg">
<rect width="70" height="70" rx="10" fill="#F8F2FF"/>
<g clip-path="url(#clip0_140_610)">
<path d="M36.672 27.959C35.9279 28.7016 34.7219 28.7016 33.9778 27.959C33.234 27.2164 33.234 26.0124 33.9778 25.2698C34.7219 24.5272 35.9279 24.5272 36.672 25.2698C37.4159 26.0124 37.4159 27.2164 36.672 27.959Z" fill="#9C4DF4"/>
<path d="M39.2744 30.8402C39.0423 30.8402 38.8102 30.7516 38.6335 30.5742C38.2801 30.2203 38.2808 29.6469 38.6347 29.2937C39.3518 28.5779 39.7466 27.6263 39.7466 26.6143C39.7466 25.6023 39.3518 24.6508 38.6347 23.935C38.2808 23.5815 38.2801 23.0084 38.6335 22.6542C38.9867 22.3004 39.5601 22.2997 39.9139 22.6531C40.9739 23.7111 41.5575 25.1177 41.5575 26.6143C41.5575 28.1107 40.9739 29.5175 39.9139 30.5756C39.7372 30.752 39.5058 30.8402 39.2744 30.8402Z" fill="#9C4DF4"/>
<path d="M41.3225 33.5063C41.0904 33.5063 40.8583 33.4177 40.6816 33.2405C40.3282 32.8864 40.3289 32.3132 40.6828 31.9598C42.1133 30.5319 42.9013 28.6336 42.9013 26.6144C42.9013 24.5952 42.1133 22.6969 40.6828 21.269C40.3289 20.9155 40.3282 20.3423 40.6816 19.9882C41.035 19.6343 41.6082 19.6337 41.962 19.9871C43.7354 21.7572 44.7123 24.1108 44.712 26.6144C44.712 29.1179 43.7354 31.4718 41.962 33.2419C41.7853 33.4182 41.5539 33.5063 41.3225 33.5063Z" fill="#9C4DF4"/>
<path d="M31.371 30.8398C31.1396 30.8398 30.9082 30.7516 30.7313 30.5752C29.6713 29.5171 29.0876 28.1103 29.0876 26.6139C29.0876 25.1173 29.6713 23.7107 30.7313 22.6527C31.0851 22.2993 31.6585 22.2997 32.0116 22.6538C32.365 23.0077 32.3643 23.5811 32.0105 23.9346C31.2934 24.6504 30.8986 25.6019 30.8986 26.6139C30.8986 27.6259 31.2934 28.5775 32.0105 29.2933C32.3643 29.6465 32.365 30.2199 32.0116 30.5738C31.8349 30.751 31.6028 30.8398 31.371 30.8398Z" fill="#9C4DF4"/>
<path d="M29.3229 33.5072C29.0912 33.5072 28.8598 33.419 28.6831 33.2425C26.9097 31.4724 25.9331 29.1188 25.9331 26.6152C25.9331 24.1115 26.9097 21.7578 28.6831 19.9877C29.037 19.6345 29.6103 19.635 29.9635 19.9891C30.3169 20.343 30.3162 20.9161 29.9623 21.2696C28.5318 22.6975 27.7438 24.5958 27.7438 26.615C27.7438 28.6342 28.5318 30.5327 29.9623 31.9607C30.3162 32.3141 30.3169 32.8873 29.9635 33.2414C29.7868 33.4186 29.5547 33.5072 29.3229 33.5072Z" fill="#9C4DF4"/>
<path d="M47.2561 35.0718H23.3891C22.2193 35.0718 21.271 36.0201 21.271 37.1898V47.6071C21.271 48.7771 22.2193 49.7254 23.3891 49.7254H47.2559C48.4257 49.7254 49.374 48.7771 49.374 47.6071V37.1898C49.374 36.0201 48.4257 35.0718 47.2561 35.0718V35.0718ZM28.2361 47.0076H24.9001C24.4003 47.0076 23.9949 46.6022 23.9949 46.1021V38.6951C23.9949 38.1952 24.4003 37.7896 24.9001 37.7896C25.4002 37.7896 25.8056 38.195 25.8056 38.6951V45.1965H28.2361C28.7362 45.1965 29.1415 45.6019 29.1415 46.1021C29.1415 46.6022 28.7362 47.0076 28.2361 47.0076ZM31.9467 46.1021C31.9467 46.6022 31.5414 47.0076 31.0413 47.0076C30.5411 47.0076 30.1358 46.6022 30.1358 46.1021V38.6951C30.1358 38.1952 30.5411 37.7896 31.0413 37.7896C31.5414 37.7896 31.9467 38.195 31.9467 38.6951V46.1021ZM39.5648 38.957L37.3289 46.3637C37.3286 46.3644 37.3284 46.3651 37.3282 46.3658C37.0853 47.1946 35.8473 47.1743 35.596 46.3658C35.5958 46.3651 35.5955 46.3644 35.5953 46.3637L33.3594 38.957C33.2149 38.4781 33.4857 37.9729 33.9645 37.8283C34.4429 37.6838 34.9485 37.9546 35.0929 38.4335L36.4621 42.9688L37.8312 38.4335C37.9759 37.9546 38.481 37.6836 38.9599 37.8283C39.4385 37.9729 39.7094 38.4781 39.5648 38.957V38.957ZM45.1351 41.0268C45.6352 41.0268 46.0405 41.4322 46.0405 41.9323C46.0405 42.4322 45.6352 42.8379 45.1351 42.8379H42.5657V45.1965H45.6228C46.1229 45.1965 46.5283 45.6019 46.5283 46.1021C46.5283 46.6022 46.1229 47.0076 45.6228 47.0076H41.6602C41.1601 47.0076 40.7547 46.6022 40.7547 46.1021V38.6951C40.7547 38.1952 41.1601 37.7896 41.6602 37.7896H45.7448C46.2447 37.7896 46.6503 38.195 46.6503 38.6951C46.6503 39.1953 46.2447 39.6007 45.7448 39.6007H42.5654V41.0268H45.1351Z" fill="#9C4DF4"/>
</g>
<defs>
<clipPath id="clip0_140_610">
<rect width="30" height="30.0032" fill="white" transform="translate(20.3335 19.7222)"/>
</clipPath>
</defs>
</svg>
