<svg width="70" height="70" viewBox="0 0 70 70" fill="none" xmlns="http://www.w3.org/2000/svg">
<rect width="70" height="70" rx="10" fill="#E6FFF3"/>
<g clip-path="url(#clip0_140_611)">
<path d="M35 20C26.7157 20 20 26.7164 20 35.0016C20 43.2867 26.7157 50.0032 35 50.0032C43.2842 50.0032 49.9999 43.2867 49.9999 35.0016C49.9911 26.7201 43.2806 20.0089 35 20ZM41.317 35.4796C41.2132 35.6879 41.0444 35.8568 40.836 35.9606V35.966L32.2646 40.2522C31.7353 40.5167 31.0918 40.302 30.8272 39.7726C30.752 39.6221 30.7133 39.456 30.7142 39.2878V30.7155C30.714 30.1236 31.1934 29.6437 31.7852 29.6434C31.9516 29.6433 32.1158 29.682 32.2646 29.7564L40.836 34.0426C41.3656 34.3065 41.581 34.9499 41.317 35.4796Z" fill="#00C968"/>
</g>
<defs>
<clipPath id="clip0_140_611">
<rect width="30" height="30.0032" fill="white" transform="translate(20 20)"/>
</clipPath>
</defs>
</svg>
